<svg width="16" height="16" viewBox="0 0 16 16" fill="none" xmlns="http://www.w3.org/2000/svg">
<path d="M3 2.99997C3 2.46954 3.21071 1.96083 3.58579 1.58576C3.96086 1.21068 4.46957 0.99997 5 0.99997C5.53043 0.99997 6.03914 1.21068 6.41421 1.58576C6.78929 1.96083 7 2.46954 7 2.99997C7 3.5304 6.78929 4.03911 6.41421 4.41418C6.03914 4.78926 5.53043 4.99997 5 4.99997C4.46957 4.99997 3.96086 4.78926 3.58579 4.41418C3.21071 4.03911 3 3.5304 3 2.99997ZM5 1.99997C4.73478 1.99997 4.48043 2.10533 4.29289 2.29286C4.10536 2.4804 4 2.73475 4 2.99997C4 3.26519 4.10536 3.51954 4.29289 3.70708C4.48043 3.89461 4.73478 3.99997 5 3.99997C5.26522 3.99997 5.51957 3.89461 5.70711 3.70708C5.89464 3.51954 6 3.26519 6 2.99997C6 2.73475 5.89464 2.4804 5.70711 2.29286C5.51957 2.10533 5.26522 1.99997 5 1.99997ZM9.779 4.58397C9.56949 4.42416 9.39363 4.22453 9.26152 3.99655C9.1294 3.76856 9.04364 3.51672 9.00916 3.25549C8.97468 2.99426 8.99216 2.72879 9.06059 2.47433C9.12903 2.21988 9.24707 1.98145 9.40794 1.77276C9.56881 1.56407 9.76933 1.38922 9.99798 1.25826C10.2266 1.12731 10.4789 1.04282 10.7403 1.00967C11.0017 0.976515 11.2671 0.995342 11.5212 1.06507C11.7753 1.13479 12.0131 1.25405 12.221 1.41597C12.6303 1.74337 12.8947 2.21837 12.9573 2.73874C13.02 3.25912 12.8758 3.78328 12.5559 4.19847C12.236 4.61365 11.7659 4.88666 11.2468 4.95875C10.7276 5.03085 10.1999 4.89627 9.779 4.58397ZM11 1.99997C10.7348 1.99997 10.4804 2.10533 10.2929 2.29286C10.1054 2.4804 10 2.73475 10 2.99997C10 3.26519 10.1054 3.51954 10.2929 3.70708C10.4804 3.89461 10.7348 3.99997 11 3.99997C11.2652 3.99997 11.5196 3.89461 11.7071 3.70708C11.8946 3.51954 12 3.26519 12 2.99997C12 2.73475 11.8946 2.4804 11.7071 2.29286C11.5196 2.10533 11.2652 1.99997 11 1.99997ZM2.5 5.99997H5.17C5.06 6.31297 5 6.64997 5 6.99997H2.5C2.36739 6.99997 2.24021 7.05265 2.14645 7.14642C2.05268 7.24019 2 7.36736 2 7.49997C2 8.31697 2.325 8.92297 2.838 9.33497C3.074 9.52497 3.357 9.67797 3.677 9.78997C3.44201 10.0398 3.26092 10.3352 3.145 10.658C2.80913 10.5236 2.49478 10.3406 2.212 10.115C1.46 9.50997 1 8.61597 1 7.49997C1 7.10215 1.15804 6.72061 1.43934 6.43931C1.72064 6.15801 2.10218 5.99997 2.5 5.99997ZM6.268 5.99997C6.00278 6.45959 5.93101 7.00574 6.06848 7.51828C6.20594 8.03082 6.54138 8.46775 7.001 8.73297C7.46062 8.99819 8.00677 9.06996 8.51931 8.93249C9.03185 8.79503 9.46878 8.45959 9.734 7.99997C9.99922 7.54035 10.071 6.9942 9.93352 6.48166C9.79606 5.96912 9.46062 5.53219 9.001 5.26697C8.54138 5.00175 7.99523 4.92998 7.48269 5.06745C6.97015 5.20491 6.53322 5.54035 6.268 5.99997ZM7.776 6.02497C7.92252 5.99187 8.0746 5.99211 8.22101 6.02565C8.36743 6.0592 8.50444 6.12521 8.62193 6.2188C8.73942 6.31239 8.83439 6.43117 8.89983 6.56638C8.96527 6.70158 8.9995 6.84976 9 6.99997C9 7.0773 8.99167 7.15197 8.975 7.22397C8.93488 7.39788 8.84895 7.55788 8.72613 7.68738C8.6033 7.81687 8.44806 7.91113 8.27651 7.96037C8.10497 8.00962 7.92336 8.01205 7.75056 7.96743C7.57775 7.9228 7.42003 7.83274 7.29378 7.70659C7.16752 7.58045 7.07733 7.4228 7.03256 7.25003C6.98779 7.07726 6.99008 6.89566 7.03918 6.72407C7.08828 6.55248 7.18241 6.39716 7.3118 6.27423C7.44119 6.1513 7.60212 6.06523 7.776 6.02497ZM13.161 9.33497C12.925 9.52497 12.642 9.67797 12.322 9.78997C12.5566 10.0398 12.7374 10.3353 12.853 10.658C13.193 10.519 13.508 10.338 13.787 10.115C14.54 9.50997 15 8.61597 15 7.49997C15 7.10215 14.842 6.72061 14.5607 6.43931C14.2794 6.15801 13.8978 5.99997 13.5 5.99997H10.83C10.94 6.31297 11 6.64997 11 6.99997H13.5C13.6326 6.99997 13.7598 7.05265 13.8536 7.14642C13.9473 7.24019 14 7.36736 14 7.49997C14 8.31697 13.674 8.92297 13.161 9.33497ZM10.5 9.99997C10.8978 9.99997 11.2794 10.158 11.5607 10.4393C11.842 10.7206 12 11.1021 12 11.5C12 12.616 11.541 13.51 10.788 14.115C10.047 14.71 9.053 15 8 15C6.947 15 5.953 14.71 5.212 14.115C4.46 13.51 4 12.616 4 11.5C3.99947 11.3028 4.03791 11.1075 4.11311 10.9253C4.1883 10.7431 4.29877 10.5775 4.43816 10.4381C4.57756 10.2987 4.74312 10.1883 4.92535 10.1131C5.10758 10.0379 5.30287 9.99944 5.5 9.99997H10.5ZM10.5 11H5.5C5.36739 11 5.24021 11.0526 5.14645 11.1464C5.05268 11.2402 5 11.3674 5 11.5C5 12.317 5.325 12.923 5.838 13.335C6.364 13.757 7.12 14 8 14C8.88 14 9.636 13.757 10.162 13.335C10.675 12.923 11 12.317 11 11.5C11 11.3674 10.9473 11.2402 10.8536 11.1464C10.7598 11.0526 10.6326 11 10.5 11Z" fill="#0FA958"/>
</svg>
