<svg width="16" height="16" viewBox="0 0 16 16" fill="none" xmlns="http://www.w3.org/2000/svg">
<g clip-path="url(#clip0_259_6)">
<path d="M11 8C11.0007 7.42651 10.8147 6.86837 10.47 6.41L11.8 5.09C12.0601 5.19818 12.3384 5.25587 12.62 5.26C12.8748 5.26801 13.1287 5.22571 13.3671 5.13554C13.6055 5.04538 13.8239 4.9091 14.0096 4.7345C14.1954 4.5599 14.3449 4.35041 14.4496 4.118C14.5543 3.88558 14.6122 3.63481 14.62 3.38C14.62 2.84957 14.4093 2.34086 14.0342 1.96579C13.6591 1.59072 13.1504 1.38 12.62 1.38C12.0896 1.38 11.5809 1.59072 11.2058 1.96579C10.8307 2.34086 10.62 2.84957 10.62 3.38C10.6213 3.68933 10.7041 3.99286 10.86 4.26L9.53 5.59C9.06248 5.32832 8.53577 5.19062 8 5.19C7.33849 5.18089 6.69251 5.39069 6.1626 5.78677C5.63269 6.18285 5.24856 6.74298 5.07 7.38H4.38C4.22897 7.00655 3.96869 6.68741 3.63324 6.46438C3.29779 6.24134 2.9028 6.12479 2.5 6.13C1.98709 6.11381 1.48865 6.30149 1.11381 6.65197C0.73897 7.00245 0.518261 7.48716 0.5 8C0.507759 8.25481 0.565659 8.50558 0.670391 8.738C0.775123 8.97041 0.924634 9.1799 1.11038 9.3545C1.29612 9.5291 1.51445 9.66537 1.75289 9.75554C1.99133 9.84571 2.24521 9.88801 2.5 9.88C2.9028 9.88522 3.29779 9.76867 3.63324 9.54563C3.96869 9.32259 4.22897 9.00346 4.38 8.63H5.07C5.24856 9.26703 5.63269 9.82716 6.1626 10.2232C6.69251 10.6193 7.33849 10.8291 8 10.82C8.38219 10.832 8.763 10.7686 9.12066 10.6333C9.47833 10.4981 9.80582 10.2936 10.0844 10.0317C10.363 9.76985 10.5873 9.45561 10.7444 9.10699C10.9015 8.75837 10.9884 8.38221 11 8ZM12.62 2.76C12.8016 2.74329 12.9824 2.79911 13.1229 2.91529C13.2634 3.03146 13.3523 3.19853 13.37 3.38C13.3409 3.5579 13.2494 3.71964 13.112 3.83634C12.9747 3.95305 12.8003 4.01712 12.62 4.01712C12.4397 4.01712 12.2653 3.95305 12.128 3.83634C11.9906 3.71964 11.8991 3.5579 11.87 3.38C11.8902 3.19957 11.9797 3.03405 12.1197 2.91837C12.2596 2.80269 12.439 2.74591 12.62 2.76ZM2.5 8.63C2.31743 8.64395 2.13666 8.5858 1.99646 8.46803C1.85625 8.35026 1.76778 8.18224 1.75 8C1.7702 7.81957 1.85972 7.65405 1.99965 7.53837C2.13958 7.42269 2.31899 7.36591 2.5 7.38C2.68101 7.36591 2.86042 7.42269 3.00035 7.53837C3.14028 7.65405 3.2298 7.81957 3.25 8C3.23222 8.18224 3.14375 8.35026 3.00354 8.46803C2.86334 8.5858 2.68257 8.64395 2.5 8.63ZM8 9.57C7.56024 9.59185 7.12965 9.43915 6.80192 9.14513C6.47418 8.8511 6.27582 8.43954 6.25 8C6.27579 7.56129 6.47449 7.1507 6.80254 6.85827C7.13059 6.56584 7.56122 6.41542 8 6.44C8.43813 6.41807 8.86729 6.56941 9.19475 6.86132C9.5222 7.15322 9.72165 7.56225 9.75 8C9.72164 8.4386 9.52254 8.84862 9.19539 9.14212C8.86823 9.43562 8.43909 9.58923 8 9.57Z" fill="#0FA958"/>
<path d="M2.5 4.38C2.78227 4.38183 3.06173 4.32389 3.32 4.21L5.08 6C5.33484 5.65968 5.64599 5.36544 6 5.13L4.26 3.38C4.41594 3.11285 4.49872 2.80932 4.5 2.5C4.48174 1.98715 4.26103 1.50244 3.88619 1.15196C3.51135 0.801484 3.01291 0.6138 2.5 0.629996C1.98709 0.6138 1.48865 0.801484 1.11381 1.15196C0.73897 1.50244 0.518261 1.98715 0.5 2.5C0.507759 2.7548 0.565659 3.00557 0.670391 3.23799C0.775123 3.4704 0.924634 3.67989 1.11038 3.85449C1.29612 4.02909 1.51445 4.16537 1.75289 4.25554C1.99133 4.34571 2.24521 4.388 2.5 4.38ZM2.5 1.88C2.68101 1.8659 2.86042 1.92268 3.00035 2.03836C3.14028 2.15404 3.2298 2.31957 3.25 2.5C3.23222 2.68223 3.14375 2.85025 3.00354 2.96802C2.86334 3.08579 2.68257 3.14394 2.5 3.13C2.31743 3.14394 2.13666 3.08579 1.99646 2.96802C1.85625 2.85025 1.76778 2.68223 1.75 2.5C1.7702 2.31957 1.85972 2.15404 1.99965 2.03836C2.13958 1.92268 2.31899 1.8659 2.5 1.88ZM13.5 11.63C13.2177 11.6282 12.9383 11.6861 12.68 11.8L10.92 10C10.6596 10.3304 10.3452 10.6144 9.99 10.84L11.73 12.58C11.5771 12.8479 11.4978 13.1515 11.5 13.46C11.5 13.9904 11.7107 14.4991 12.0858 14.8742C12.4609 15.2493 12.9696 15.46 13.5 15.46C14.0304 15.46 14.5391 15.2493 14.9142 14.8742C15.2893 14.4991 15.5 13.9904 15.5 13.46C15.4715 12.9542 15.2464 12.4797 14.8727 12.1377C14.4989 11.7957 14.0063 11.6135 13.5 11.63ZM13.5 14.13C13.3174 14.1439 13.1367 14.0858 12.9965 13.968C12.8563 13.8503 12.7678 13.6822 12.75 13.5C12.7791 13.3221 12.8706 13.1604 13.008 13.0437C13.1453 12.927 13.3197 12.8629 13.5 12.8629C13.6803 12.8629 13.8547 12.927 13.992 13.0437C14.1294 13.1604 14.2209 13.3221 14.25 13.5C14.2322 13.6822 14.1437 13.8503 14.0035 13.968C13.8633 14.0858 13.6826 14.1439 13.5 14.13Z" fill="#0FA958"/>
</g>
<defs>
<clipPath id="clip0_259_6">
<rect width="16" height="16" fill="white"/>
</clipPath>
</defs>
</svg>
