<svg width="14" height="14" viewBox="0 0 14 14" fill="none" xmlns="http://www.w3.org/2000/svg">
<g clip-path="url(#clip0_259_9)">
<path fill-rule="evenodd" clip-rule="evenodd" d="M3.09614 0.576998L9.00614 0.573998V2.877L3.09614 2.88C2.82921 2.8803 2.56919 2.79515 2.35414 2.637L1.39614 1.93C1.36471 1.90675 1.33917 1.87646 1.32157 1.84155C1.30397 1.80664 1.2948 1.76809 1.2948 1.729C1.2948 1.6899 1.30397 1.65135 1.32157 1.61645C1.33917 1.58154 1.36471 1.55124 1.39614 1.528L2.35514 0.819998C2.56951 0.661898 2.82878 0.57641 3.09514 0.575998L3.09614 0.576998ZM11.4391 2.875L10.2561 2.876V0.572998H11.4431C12.0771 0.582998 12.5621 1.146 12.5621 1.723C12.5621 2.301 12.0771 2.865 11.4431 2.875H11.4391ZM5.50814 5.185C5.84314 5.319 6.12814 5.466 6.37514 5.612V14C5.99408 13.7136 5.57721 13.4783 5.13514 13.3C4.40014 13.006 3.34014 12.763 1.72314 12.763C1.59054 12.763 1.46336 12.7103 1.36959 12.6166C1.27582 12.5228 1.22314 12.3956 1.22314 12.263V5.075C1.22314 4.94239 1.27582 4.81521 1.36959 4.72144C1.46336 4.62768 1.59054 4.575 1.72314 4.575C3.44314 4.575 4.63314 4.834 5.50814 5.185ZM8.86414 13.3C8.32414 13.517 7.94514 13.766 7.62414 13.999V5.612C7.87114 5.466 8.15714 5.319 8.49214 5.185C9.36714 4.834 10.5571 4.575 12.2771 4.575C12.4098 4.575 12.5369 4.62768 12.6307 4.72144C12.7245 4.81521 12.7771 4.94239 12.7771 5.075V12.263C12.7771 12.3956 12.7245 12.5228 12.6307 12.6166C12.5369 12.7103 12.4098 12.763 12.2771 12.763C10.6601 12.763 9.60014 13.005 8.86414 13.3Z" fill="#0FA958"/>
</g>
<defs>
<clipPath id="clip0_259_9">
<rect width="14" height="14" fill="white"/>
</clipPath>
</defs>
</svg>
