<svg width="100" height="100" viewBox="0 0 100 100" fill="none" xmlns="http://www.w3.org/2000/svg">
<path d="M91.9632 80.982L91.9862 80.969L84.7012 68.352H87.5682V68.339C88.1662 68.339 88.6512 67.855 88.6512 67.257C88.6512 67.072 88.5922 66.906 88.5112 66.754L88.5302 66.743L81.7932 55.074H83.4322V55.065C83.6371 55.065 83.8335 54.9837 83.9785 54.8389C84.1234 54.6942 84.205 54.4978 84.2052 54.293C84.2023 54.1669 84.1679 54.0435 84.1052 53.934L84.1182 53.926L74.3162 36.947L74.3062 36.953C74.1994 36.7285 74.0315 36.5387 73.8217 36.4053C73.612 36.272 73.3688 36.2005 73.1202 36.199C72.5962 36.199 72.1522 36.51 71.9352 36.951L71.9302 36.948L62.1282 53.926L62.1302 53.927C62.0643 54.0379 62.0282 54.164 62.0252 54.293C62.0252 54.719 62.3712 55.065 62.7982 55.065V55.074H64.4592L57.7222 66.743L57.7252 66.744C57.6333 66.8997 57.5827 67.0763 57.5782 67.257C57.5782 67.855 58.0632 68.339 58.6612 68.339V68.352H61.5552L59.4552 71.99L51.0562 57.442H55.1022V57.424C55.9462 57.424 56.6302 56.739 56.6302 55.896C56.6302 55.636 56.5592 55.394 56.4442 55.179L56.4592 55.17L46.9522 38.703H49.2652V38.691C49.4086 38.6911 49.5506 38.663 49.6831 38.6081C49.8156 38.5533 49.936 38.4728 50.0373 38.3714C50.1387 38.2699 50.219 38.1495 50.2737 38.017C50.3285 37.8844 50.3565 37.7424 50.3562 37.599C50.3562 37.413 50.2972 37.246 50.2152 37.093L50.2342 37.082L36.4002 13.125L36.3952 13.128C36.2425 12.8111 36.0037 12.5436 35.7061 12.3561C35.4084 12.1687 35.064 12.0688 34.7122 12.068C33.9542 12.068 33.3042 12.52 33.0082 13.168L19.2012 37.082L19.2042 37.084C19.1114 37.2404 19.0605 37.4181 19.0562 37.6C19.056 37.7433 19.084 37.8853 19.1386 38.0177C19.1933 38.1502 19.2735 38.2706 19.3748 38.372C19.476 38.4735 19.5963 38.5539 19.7286 38.6088C19.861 38.6637 20.0029 38.692 20.1462 38.692V38.704H22.4912L13.0962 54.976C12.8927 55.2396 12.7816 55.5629 12.7802 55.896C12.7802 56.74 13.4652 57.424 14.3082 57.424V57.442H18.3922L8.25223 75.007C8.01223 75.321 7.86523 75.709 7.86523 76.135C7.86523 77.167 8.70323 78.005 9.73623 78.005V78.026H29.5152V86.456C29.5152 87.271 30.1762 87.933 30.9912 87.933H38.3742C39.1892 87.933 39.8512 87.272 39.8512 86.456V78.026H55.9712L54.2722 80.969L54.2752 80.971C54.1712 81.16 54.0952 81.367 54.0952 81.599C54.0952 82.331 54.6882 82.924 55.4202 82.924V82.939H69.4362V86.88C69.4362 87.458 69.9052 87.926 70.4822 87.926H75.7142C76.2922 87.926 76.7602 87.458 76.7602 86.88V82.939H90.8102V82.924C91.5422 82.924 92.1362 82.331 92.1362 81.599C92.1312 81.3821 92.0717 81.1699 91.9632 80.982Z" fill="#0FA958"/>
</svg>
