<svg width="93" height="89" viewBox="0 0 93 89" fill="none" xmlns="http://www.w3.org/2000/svg">
<rect width="93" height="89" fill="#1E1E1E"/>
<ellipse cx="46.5" cy="44.5" rx="46.5" ry="44.5" fill="#08180A"/>
<path d="M6.84091 47L11.1875 20.8182H20.0213C21.7259 20.8182 23.098 21.1165 24.1378 21.7131C25.1776 22.3097 25.8935 23.1236 26.2855 24.1548C26.6861 25.1861 26.7713 26.358 26.5412 27.6705C26.3622 28.7614 26.0256 29.6946 25.5312 30.4702C25.0369 31.2372 24.4361 31.8636 23.7287 32.3494C23.0298 32.8267 22.2756 33.1719 21.4659 33.3849L21.4276 33.5895C22.2628 33.6491 23.0341 33.9474 23.7415 34.4844C24.4489 35.0128 24.9773 35.7543 25.3267 36.7088C25.6847 37.6634 25.7571 38.8054 25.544 40.1349C25.3224 41.456 24.8281 42.6364 24.0611 43.6761C23.3026 44.7074 22.2628 45.5213 20.9418 46.1179C19.6293 46.706 18.0355 47 16.1605 47H6.84091ZM9.58949 44.8523H16.5185C18.5384 44.8523 20.1065 44.4048 21.223 43.5099C22.3395 42.6151 23.017 41.4901 23.2557 40.1349C23.4176 39.1378 23.3239 38.2344 22.9744 37.4247C22.625 36.6065 22.054 35.9588 21.2614 35.4815C20.4688 35.0043 19.4844 34.7656 18.3082 34.7656H11.277L9.58949 44.8523ZM11.6349 32.6435H18.2955C19.3267 32.6435 20.2642 32.4304 21.108 32.0043C21.9517 31.5781 22.6506 30.9901 23.2045 30.2401C23.7585 29.4901 24.1122 28.6335 24.2656 27.6705C24.5043 26.2812 24.2443 25.152 23.4858 24.2827C22.7358 23.4048 21.4616 22.9659 19.6634 22.9659H13.2202L11.6349 32.6435Z" fill="white"/>
<path d="M37.8409 77L42.1875 50.8182H57.375L57.017 52.9659H44.2202L42.5838 62.8224H54.5753L54.2173 64.9702H42.2259L40.5895 74.8523H53.642L53.2841 77H37.8409Z" fill="white"/>
<path d="M78.2912 27.5043C78.3509 25.9702 77.8949 24.7685 76.9233 23.8991C75.9602 23.0298 74.6094 22.5952 72.8707 22.5952C71.6605 22.5952 70.5526 22.8082 69.5469 23.2344C68.5497 23.652 67.7273 24.2273 67.0795 24.9602C66.4403 25.6932 66.044 26.5284 65.8906 27.4659C65.7798 28.1562 65.831 28.7614 66.044 29.2812C66.2571 29.7926 66.5852 30.2358 67.0284 30.6108C67.4716 30.9858 67.9787 31.3054 68.5497 31.5696C69.1293 31.8338 69.7173 32.0554 70.3139 32.2344L72.9602 33.027C73.7443 33.2571 74.5241 33.5511 75.2997 33.9091C76.0753 34.267 76.7656 34.7145 77.3707 35.2514C77.9759 35.7884 78.4233 36.4489 78.7131 37.233C79.0114 38.017 79.071 38.9545 78.892 40.0455C78.6534 41.4602 78.0824 42.7259 77.179 43.8423C76.2841 44.9503 75.108 45.8281 73.6506 46.4759C72.1932 47.1236 70.5099 47.4474 68.6009 47.4474C66.8196 47.4474 65.3196 47.1534 64.1009 46.5653C62.8821 45.9687 61.983 45.1463 61.4034 44.098C60.8239 43.0497 60.6023 41.8352 60.7386 40.4545H63.1932C63.0994 41.4858 63.2912 42.3594 63.7685 43.0753C64.2543 43.7912 64.9446 44.3366 65.8395 44.7116C66.7429 45.0781 67.7827 45.2614 68.9588 45.2614C70.2628 45.2614 71.4602 45.044 72.5511 44.6094C73.642 44.1662 74.5412 43.5526 75.2486 42.7685C75.9645 41.9759 76.4077 41.0554 76.5781 40.0071C76.7315 39.1207 76.625 38.375 76.2585 37.7699C75.9006 37.1648 75.3423 36.6577 74.5838 36.2486C73.8338 35.831 72.9389 35.4645 71.8991 35.1491L68.9077 34.2287C66.956 33.6321 65.5028 32.7926 64.5483 31.7102C63.6023 30.6278 63.2656 29.2472 63.5384 27.5682C63.777 26.1534 64.3608 24.9134 65.2898 23.848C66.2273 22.7741 67.3906 21.9389 68.7798 21.3423C70.169 20.7457 71.669 20.4474 73.2798 20.4474C74.9077 20.4474 76.2926 20.75 77.4347 21.3551C78.5852 21.9602 79.4375 22.7955 79.9915 23.8608C80.554 24.9176 80.7628 26.1321 80.6179 27.5043H78.2912Z" fill="white"/>
<path d="M44.8 34V27.3733C44.1107 27.6378 43.3773 27.7778 42.6 27.7778C38.9333 27.7778 36 24.6667 36 20.7778C36 18.8022 36.7333 17.0289 37.9947 15.7533C37.6573 14.9133 37.4667 13.98 37.4667 13C37.4667 9.11111 40.4 6 44.0667 6C46.3547 6 48.3787 7.24444 49.5667 9.11111H49.9333C50.9927 9.11111 52.0416 9.33241 53.0203 9.76236C53.999 10.1923 54.8883 10.8225 55.6373 11.617C56.3864 12.4114 56.9806 13.3546 57.386 14.3926C57.7913 15.4306 58 16.5431 58 17.6667C58 18.7902 57.7913 19.9027 57.386 20.9407C56.9806 21.9787 56.3864 22.9219 55.6373 23.7164C54.8883 24.5108 53.999 25.141 53.0203 25.571C52.0416 26.0009 50.9927 26.2222 49.9333 26.2222C49.2 26.2222 48.4667 26.1133 47.7333 25.8956V34H44.8Z" fill="#5CEE17"/>
</svg>
